<svg width="25" height="37" viewBox="0 0 25 37" fill="none" xmlns="http://www.w3.org/2000/svg">
<g clip-path="url(#clip0_443_1631)">
<path d="M9.70222 17.332C9.54182 17.3549 9.3783 17.3403 9.22454 17.2891C9.07078 17.238 8.93097 17.1518 8.81619 17.0373C8.70142 16.9229 8.61482 16.7833 8.56319 16.6296C8.51156 16.4759 8.4963 16.3123 8.51868 16.1516V8.22846C8.4963 8.06785 8.51156 7.90424 8.56319 7.75054C8.61482 7.59683 8.70142 7.45724 8.81619 7.34278C8.93097 7.22831 9.07078 7.14211 9.22454 7.09098C9.3783 7.03985 9.54182 7.02518 9.70222 7.04814H13.2276C14.1324 6.99134 15.0298 7.24208 15.7744 7.75968C16.0677 7.99218 16.3017 8.29092 16.4572 8.63141C16.6128 8.97191 16.6855 9.34445 16.6694 9.7185C16.6794 10.2194 16.5332 10.7109 16.2512 11.1248C15.9664 11.5241 15.5709 11.8311 15.1137 12.008C15.648 12.14 16.1223 12.4481 16.4603 12.8828C16.7867 13.3314 16.9531 13.8768 16.9329 14.4314C16.9529 14.8372 16.877 15.242 16.7114 15.6129C16.5457 15.9838 16.2949 16.3104 15.9794 16.566C15.2261 17.113 14.3074 17.3835 13.3782 17.332H9.70222ZM10.6766 11.2797H12.8345C13.9428 11.2797 14.5073 10.8612 14.5073 9.99475C14.5073 9.12834 13.9511 8.73909 12.8345 8.73909H10.6766V11.2797ZM10.6766 15.6536H13.0813C13.5349 15.6922 13.988 15.574 14.3651 15.3187C14.5079 15.1916 14.6199 15.0335 14.6923 14.8565C14.7648 14.6796 14.7959 14.4883 14.7833 14.2975C14.7959 14.1091 14.7646 13.9203 14.6921 13.746C14.6195 13.5718 14.5076 13.4167 14.3651 13.2929C13.9885 13.0362 13.5354 12.9165 13.0813 12.9539H10.6766V15.6536Z" fill="#7694AF"/>
<path d="M12.5 32.8355C12.2781 32.8355 12.0654 32.7473 11.9086 32.5903C11.7517 32.4334 11.6636 32.2204 11.6636 31.9984V26.7582C11.6587 26.2839 11.4891 25.8262 11.1839 25.4634C10.8787 25.1007 10.4569 24.8555 9.99077 24.77C7.74679 24.3085 5.67272 23.2386 3.99507 21.6772C2.31743 20.1159 1.10074 18.1232 0.477946 15.9167C-0.14485 13.7103 -0.149799 11.3749 0.463601 9.16585C1.077 6.95676 2.28519 4.95886 3.95617 3.39039C5.20192 2.21506 6.67743 1.31076 8.28969 0.73447C9.90196 0.158176 11.616 -0.0776156 13.3238 0.0419712C16.0993 0.226039 18.7342 1.33138 20.8113 3.18303C22.8885 5.03467 24.2892 7.52682 24.7917 10.2649C25.2942 13.0031 24.8699 15.8307 23.5858 18.3003C22.3017 20.7698 20.2314 22.7402 17.7024 23.8994C17.6025 23.9451 17.4945 23.9705 17.3847 23.9744C17.2749 23.9783 17.1655 23.9604 17.0626 23.922C16.9596 23.8835 16.8653 23.8251 16.7849 23.7501C16.7046 23.6752 16.6398 23.5851 16.5942 23.4851C16.5486 23.385 16.5231 23.277 16.5193 23.1671C16.5154 23.0572 16.5332 22.9477 16.5717 22.8447C16.6101 22.7417 16.6684 22.6473 16.7433 22.5668C16.8182 22.4864 16.9082 22.4215 17.0082 22.3759C19.2026 21.3739 20.9998 19.6673 22.1148 17.5267C23.2298 15.3861 23.5988 12.9342 23.1632 10.5599C22.7275 8.18565 21.5122 6.02492 19.71 4.42052C17.9079 2.81612 15.622 1.85993 13.2151 1.70362C11.7374 1.60745 10.2557 1.81568 8.86155 2.31545C7.46744 2.81521 6.19061 3.59589 5.10995 4.60919C4.02929 5.6225 3.16779 6.8469 2.57875 8.20669C1.98971 9.56647 1.68564 11.0327 1.68533 12.5148C1.69374 15.0073 2.55679 17.4214 4.1302 19.3534C5.70361 21.2854 7.89202 22.6184 10.3295 23.1293C11.1761 23.2881 11.9408 23.7373 12.4919 24.3997C13.0431 25.0621 13.3461 25.8962 13.3489 26.7582V31.9984C13.3489 32.1094 13.3269 32.2193 13.2841 32.3217C13.2413 32.4241 13.1786 32.5169 13.0996 32.5948C13.0206 32.6727 12.9269 32.7341 12.8239 32.7754C12.721 32.8168 12.6109 32.8372 12.5 32.8355Z" fill="#7694AF"/>
<path d="M20.8974 37.0043H4.10251C3.88069 37.0043 3.66796 36.9161 3.5111 36.7591C3.35425 36.6021 3.26611 36.3892 3.26611 36.1672C3.26611 35.9452 3.35425 35.7322 3.5111 35.5752C3.66796 35.4183 3.88069 35.3301 4.10251 35.3301H20.8974C21.1192 35.3301 21.332 35.4183 21.4889 35.5752C21.6457 35.7322 21.7338 35.9452 21.7338 36.1672C21.7338 36.3892 21.6457 36.6021 21.4889 36.7591C21.332 36.9161 21.1192 37.0043 20.8974 37.0043Z" fill="#7694AF"/>
</g>
<defs>
<clipPath id="clip0_443_1631">
<rect width="25" height="37" fill="white"/>
</clipPath>
</defs>
</svg>
