<svg width="31" height="23" viewBox="0 0 31 23" fill="none" xmlns="http://www.w3.org/2000/svg">
<path d="M5.75853 22.5657C8.93888 22.5657 11.5171 19.9029 11.5171 16.6181C11.5171 13.3334 8.93888 10.6706 5.75853 10.6706C2.57818 10.6706 0 13.3334 0 16.6181C0 19.9029 2.57818 22.5657 5.75853 22.5657Z" fill="#FFEBC1"/>
<path d="M24.8779 10.3253C23.9152 10.325 22.966 10.5588 22.107 11.0077L21.0049 9.32462L20.9867 9.29764C20.8787 9.14843 20.759 9.0086 20.6289 8.87956V3.19902C20.6282 2.35127 20.302 1.53841 19.7218 0.93871C19.1417 0.33901 18.355 0.00142808 17.5342 0H14.9409C14.7331 0 14.5338 0.0852577 14.3869 0.237011C14.2399 0.388764 14.1574 0.594583 14.1574 0.809194C14.1574 1.02381 14.2399 1.22963 14.3869 1.38139C14.5338 1.53314 14.7331 1.61839 14.9409 1.61839H17.5263C17.9318 1.6191 18.3203 1.78595 18.6068 2.08229C18.8932 2.37864 19.0541 2.78028 19.0541 3.19902V7.94629C18.7556 7.86013 18.4473 7.81568 18.1374 7.81412H10.4307C10.4307 7.77636 10.4307 7.7359 10.4307 7.69544V5.83429H11.4753C11.6831 5.83429 11.8824 5.74904 12.0293 5.59728C12.1762 5.44553 12.2588 5.23971 12.2588 5.0251C12.2588 4.81049 12.1762 4.60467 12.0293 4.45292C11.8824 4.30116 11.6831 4.2159 11.4753 4.2159H7.80603C7.59824 4.2159 7.39895 4.30116 7.25202 4.45292C7.10509 4.60467 7.02255 4.81049 7.02255 5.0251C7.02255 5.23971 7.10509 5.44553 7.25202 5.59728C7.39895 5.74904 7.59824 5.83429 7.80603 5.83429H8.85066V7.69814C8.84965 8.13974 8.95513 8.57465 9.15756 8.96362C9.36 9.35258 9.65302 9.68338 10.0102 9.92612C11.0863 10.6546 11.9698 11.6482 12.5812 12.8174C13.1926 13.9867 13.5126 15.2947 13.5123 16.6236C13.5123 16.8382 13.5949 17.044 13.7418 17.1957C13.8887 17.3475 14.088 17.4327 14.2958 17.4327C14.5036 17.4327 14.7029 17.3475 14.8498 17.1957C14.9967 17.044 15.0793 16.8382 15.0793 16.6236C15.079 15.2646 14.7995 13.9211 14.2593 12.682C13.719 11.4429 12.9304 10.3362 11.9454 9.43521H18.1348C18.4387 9.43604 18.7384 9.50953 19.0102 9.64991C19.2821 9.7903 19.5188 9.99377 19.7018 10.2444L20.796 11.914C19.7205 12.8968 19.0128 14.238 18.796 15.7041C18.5791 17.1702 18.8669 18.6685 19.6092 19.9381C20.3516 21.2077 21.5014 22.1682 22.8587 22.6525C24.216 23.1368 25.6947 23.1143 27.0375 22.5887C28.3803 22.0632 29.5022 21.0679 30.2078 19.7762C30.9135 18.4845 31.1583 16.9782 30.8996 15.5193C30.6409 14.0605 29.895 12.7415 28.7919 11.792C27.6888 10.8424 26.2982 10.3225 24.8622 10.3226L24.8779 10.3253ZM24.8779 21.3843C23.9676 21.3848 23.0778 21.1043 22.3229 20.5789C21.568 20.0534 20.9823 19.307 20.641 18.4353C20.2997 17.5637 20.2184 16.6066 20.4075 15.6868C20.5966 14.7671 21.0475 13.9267 21.7022 13.2735L24.0814 16.9122C24.1532 17.022 24.2501 17.1119 24.3635 17.174C24.4769 17.236 24.6033 17.2684 24.7317 17.2682C24.8878 17.2676 25.0403 17.2198 25.1704 17.1306C25.2557 17.071 25.3288 16.9946 25.3854 16.9058C25.4421 16.817 25.4813 16.7175 25.5007 16.613C25.5201 16.5085 25.5193 16.4011 25.4985 16.297C25.4777 16.1928 25.4372 16.0939 25.3793 16.0059L22.9924 12.3672C23.5825 12.0885 24.2238 11.9441 24.8727 11.9437C26.0581 11.9851 27.1815 12.5006 28.0059 13.3813C28.8302 14.262 29.291 15.439 29.291 16.664C29.291 17.889 28.8302 19.0661 28.0059 19.9468C27.1815 20.8275 26.0581 21.3429 24.8727 21.3843H24.8779Z" fill="#FFEBC1"/>
</svg>
