<svg width="34" height="35" viewBox="0 0 34 35" fill="none" xmlns="http://www.w3.org/2000/svg">
<path d="M16.9162 23.3119C14.0094 23.3119 9.20392 17.8812 9.20392 11.6943C9.20392 9.65365 10.0165 7.69658 11.4628 6.25361C12.9091 4.81065 14.8708 4 16.9162 4C18.9616 4 20.9233 4.81065 22.3696 6.25361C23.8159 7.69658 24.6285 9.65365 24.6285 11.6943C24.6285 16.8006 20.3033 23.3119 16.9162 23.3119ZM16.9162 5.49743C15.2695 5.49941 13.6907 6.15294 12.5263 7.31465C11.3619 8.47636 10.7068 10.0514 10.7048 11.6943C10.7048 17.3272 15.1651 21.8145 16.9162 21.8145C19.075 21.8145 23.1275 16.4537 23.1275 11.6943C23.1249 10.0518 22.4696 8.47743 21.3052 7.31626C20.1409 6.15509 18.5625 5.50191 16.9162 5.49993V5.49743Z" fill="#FFEBC1"/>
<path d="M26.327 30.4995H7.67047C7.20871 30.4986 6.75275 30.3969 6.33462 30.2014C5.9165 30.0059 5.54636 29.7214 5.25023 29.3679C4.9541 29.0144 4.73917 28.6005 4.62054 28.1553C4.5019 27.7101 4.48245 27.2443 4.56355 26.7908L5.34654 22.4258C5.48655 21.6388 5.90008 20.9261 6.5145 20.4131C7.12892 19.9 7.90491 19.6195 8.70612 19.6206C8.90515 19.6206 9.09604 19.6995 9.23678 19.8399C9.37752 19.9803 9.45658 20.1708 9.45658 20.3693C9.45658 20.5679 9.37752 20.7583 9.23678 20.8987C9.09604 21.0392 8.90515 21.118 8.70612 21.118C8.25731 21.1176 7.82272 21.275 7.47869 21.5626C7.13466 21.8501 6.90318 22.2494 6.82495 22.6903L6.03697 27.0554C5.99419 27.2938 6.00431 27.5387 6.06664 27.7728C6.12896 28.0069 6.24198 28.2245 6.39771 28.4103C6.55344 28.5962 6.74811 28.7457 6.96801 28.8483C7.18791 28.951 7.42769 29.0043 7.67047 29.0045H26.327C26.5724 29.0044 26.8148 28.95 27.0366 28.8453C27.2584 28.7406 27.4543 28.5881 27.61 28.3989C27.7657 28.2096 27.8775 27.9883 27.9372 27.7508C27.997 27.5133 28.0032 27.2656 27.9555 27.0254L27.0775 22.6529C26.9903 22.2204 26.7559 21.8312 26.4139 21.5515C26.072 21.2717 25.6435 21.1186 25.2013 21.118C25.0023 21.118 24.8114 21.0392 24.6707 20.8987C24.5299 20.7583 24.4509 20.5679 24.4509 20.3693C24.4509 20.1708 24.5299 19.9803 24.6707 19.8399C24.8114 19.6995 25.0023 19.6206 25.2013 19.6206C25.9914 19.6225 26.7565 19.8969 27.3669 20.3972C27.9774 20.8975 28.3957 21.5931 28.5509 22.3659L29.4189 26.7359C29.5094 27.1922 29.4975 27.6629 29.3841 28.114C29.2707 28.5652 29.0586 28.9858 28.763 29.3455C28.4675 29.7053 28.0958 29.9953 27.6746 30.1948C27.2535 30.3943 26.7933 30.4984 26.327 30.4995Z" fill="#FFEBC1"/>
<path d="M16.9162 14.7191C18.5326 14.7191 19.843 13.4118 19.843 11.7991C19.843 10.1865 18.5326 8.87915 16.9162 8.87915C15.2998 8.87915 13.9894 10.1865 13.9894 11.7991C13.9894 13.4118 15.2998 14.7191 16.9162 14.7191Z" fill="#FFEBC1"/>
</svg>
