<svg width="28" height="28" viewBox="0 0 28 28" fill="none" xmlns="http://www.w3.org/2000/svg">
<g clip-path="url(#clip0_443_2565)">
<path d="M14 9.97821C13.2024 9.97821 12.4228 10.2147 11.7596 10.6577C11.0964 11.1008 10.5796 11.7305 10.2744 12.4673C9.96916 13.2041 9.88929 14.0148 10.0449 14.797C10.2005 15.5792 10.5846 16.2976 11.1485 16.8615C11.7125 17.4254 12.431 17.8095 13.2133 17.965C13.9955 18.1206 14.8063 18.0408 15.5432 17.7356C16.2801 17.4304 16.9099 16.9136 17.353 16.2505C17.7961 15.5874 18.0326 14.8078 18.0326 14.0104C18.031 12.9415 17.6057 11.9168 16.8498 11.1609C16.0938 10.4051 15.069 9.97978 14 9.97821ZM14 16.2675C13.5535 16.2675 13.1171 16.1352 12.7458 15.8871C12.3746 15.6391 12.0853 15.2866 11.9144 14.8741C11.7436 14.4617 11.6989 14.0079 11.786 13.57C11.8731 13.1322 12.088 12.73 12.4038 12.4143C12.7195 12.0986 13.1217 11.8836 13.5596 11.7966C13.9975 11.7095 14.4514 11.7542 14.8639 11.925C15.2764 12.0958 15.6289 12.3851 15.877 12.7563C16.125 13.1275 16.2574 13.5639 16.2574 14.0104C16.2543 14.6072 16.0152 15.1786 15.5923 15.5998C15.1693 16.021 14.5969 16.2579 14 16.2587V16.2675Z" fill="#B5B2A6"/>
<path d="M26.3937 13.114H23.083C22.875 11.0113 21.9448 9.04571 20.4505 7.55166C18.9563 6.05761 16.9905 5.12747 14.8876 4.91953V1.60624C14.8876 1.37086 14.7941 1.14512 14.6276 0.978684C14.4612 0.812248 14.2354 0.71875 14 0.71875C13.7646 0.71875 13.5388 0.812248 13.3724 0.978684C13.2059 1.14512 13.1124 1.37086 13.1124 1.60624V4.91953C11.0095 5.12747 9.04369 6.05761 7.54947 7.55166C6.05526 9.04571 5.125 11.0113 4.91703 13.114H1.60634C1.37093 13.114 1.14517 13.2075 0.978713 13.3739C0.812258 13.5404 0.71875 13.7661 0.71875 14.0015C0.71875 14.2368 0.812258 14.4626 0.978713 14.629C1.14517 14.7955 1.37093 14.889 1.60634 14.889H4.91703C5.12554 16.9914 6.05598 18.9567 7.55009 20.4507C9.0442 21.9446 11.0097 22.8749 13.1124 23.0834V26.3938C13.1124 26.6291 13.2059 26.8549 13.3724 27.0213C13.5388 27.1877 13.7646 27.2812 14 27.2812C14.2354 27.2812 14.4612 27.1877 14.6276 27.0213C14.7941 26.8549 14.8876 26.6291 14.8876 26.3938V23.0834C16.9903 22.8749 18.9558 21.9446 20.4499 20.4507C21.944 18.9567 22.8745 16.9914 23.083 14.889H26.3937C26.6291 14.889 26.8548 14.7955 27.0213 14.629C27.1877 14.4626 27.2813 14.2368 27.2813 14.0015C27.2813 13.7661 27.1877 13.5404 27.0213 13.3739C26.8548 13.2075 26.6291 13.114 26.3937 13.114ZM14 21.3528C12.5459 21.3528 11.1244 20.9217 9.91536 20.1139C8.7063 19.3061 7.76394 18.158 7.20747 16.8147C6.651 15.4714 6.5054 13.9933 6.78909 12.5673C7.07277 11.1413 7.77302 9.83138 8.80124 8.80328C9.82946 7.77517 11.1395 7.07503 12.5657 6.79137C13.9918 6.50772 15.4701 6.65331 16.8135 7.20971C18.157 7.76612 19.3052 8.70835 20.1131 9.91728C20.921 11.1262 21.3522 12.5475 21.3522 14.0015C21.3498 15.9504 20.5745 17.8189 19.1962 19.1971C17.8179 20.5752 15.9492 21.3505 14 21.3528Z" fill="#B5B2A6"/>
</g>
<defs>
<clipPath id="clip0_443_2565">
<rect width="26.5625" height="26.5625" fill="white" transform="translate(0.71875 0.71875)"/>
</clipPath>
</defs>
</svg>
