<svg width="31" height="27" viewBox="0 0 31 27" fill="none" xmlns="http://www.w3.org/2000/svg">
<path d="M26.1479 15.0496C25.5105 15.0493 24.8792 15.1695 24.2902 15.4034C23.7011 15.6373 23.1659 15.9804 22.715 16.413C22.2642 16.8456 21.9065 17.3592 21.6625 17.9246C21.4185 18.4899 21.2928 19.0959 21.2928 19.7079C21.2928 23.6223 24.4703 27 26.1479 27C28.0468 27 31 23.1107 31 19.7079C31 18.4724 30.4888 17.2876 29.5789 16.414C28.6689 15.5404 27.4348 15.0496 26.1479 15.0496ZM26.1479 21.7182C25.7447 21.7182 25.3505 21.6034 25.0152 21.3884C24.68 21.1733 24.4187 20.8676 24.2644 20.51C24.1101 20.1523 24.0697 19.7588 24.1483 19.3791C24.227 18.9995 24.4212 18.6507 24.7063 18.377C24.9914 18.1033 25.3547 17.9169 25.7502 17.8413C26.1456 17.7658 26.5555 17.8046 26.9281 17.9527C27.3006 18.1009 27.619 18.3517 27.843 18.6736C28.067 18.9955 28.1866 19.3739 28.1866 19.761C28.1866 20.2801 27.9718 20.7779 27.5895 21.145C27.2071 21.512 26.6886 21.7182 26.1479 21.7182Z" fill="#F2EADF"/>
<path d="M6.22177 5.09058C7.5761 4.87953 8.49577 3.65441 8.27593 2.35421C8.05609 1.05401 6.77999 0.171085 5.42567 0.382137C4.07135 0.593189 3.15166 1.8183 3.3715 3.1185C3.59134 4.4187 4.86745 5.30163 6.22177 5.09058Z" fill="#F2EADF"/>
<path d="M19.3124 24.5003H7.351C5.86485 24.5003 4.43956 23.9335 3.3887 22.9246C2.33783 21.9157 1.74746 20.5474 1.74746 19.1206C1.74746 17.6939 2.33783 16.3255 3.3887 15.3167C4.43956 14.3078 5.86485 13.741 7.351 13.741H18.4794C19.2998 13.7581 20.1155 13.6178 20.8786 13.3282C21.6418 13.0387 22.337 12.6057 22.9235 12.0547C23.51 11.5038 23.976 10.8459 24.2941 10.1198C24.6122 9.39359 24.7761 8.61373 24.7761 7.82595C24.7761 7.03816 24.6122 6.25831 24.2941 5.53214C23.976 4.80597 23.51 4.14811 22.9235 3.59715C22.337 3.04619 21.6418 2.61323 20.8786 2.32366C20.1155 2.0341 19.2998 1.89376 18.4794 1.91088H11.6614C11.4297 1.91088 11.2075 1.99925 11.0436 2.15656C10.8797 2.31387 10.7877 2.52723 10.7877 2.7497C10.7877 2.97217 10.8797 3.18552 11.0436 3.34283C11.2075 3.50014 11.4297 3.58852 11.6614 3.58852H18.4794C19.0686 3.57399 19.6548 3.67284 20.2036 3.87926C20.7523 4.08568 21.2525 4.39548 21.6745 4.7904C22.0966 5.18532 22.432 5.65737 22.6611 6.17871C22.8901 6.70005 23.0081 7.26014 23.0081 7.82595C23.0081 8.39176 22.8901 8.95185 22.6611 9.47319C22.432 9.99453 22.0966 10.4666 21.6745 10.8615C21.2525 11.2564 20.7523 11.5662 20.2036 11.7726C19.6548 11.979 19.0686 12.0779 18.4794 12.0634H7.351C5.40139 12.0634 3.53164 12.8069 2.15306 14.1304C0.774482 15.4539 0 17.2489 0 19.1206C0 20.9923 0.774482 22.7874 2.15306 24.1109C3.53164 25.4344 5.40139 26.1779 7.351 26.1779H19.3124C19.5441 26.1779 19.7664 26.0895 19.9302 25.9322C20.0941 25.7749 20.1861 25.5615 20.1861 25.3391C20.1861 25.1166 20.0941 24.9032 19.9302 24.7459C19.7664 24.5886 19.5441 24.5003 19.3124 24.5003Z" fill="#F2EADF"/>
</svg>
