<svg width="37" height="44" viewBox="0 0 37 44" fill="none" xmlns="http://www.w3.org/2000/svg">
<path d="M36.4922 18.6923C36.4922 8.15256 28.298 -0.0253209 18.2099 -2.40592e-06C8.43982 0.0253161 0.315167 7.90299 0.0189939 18.1027C-0.215019 26.2083 5.23309 32.5994 11.0651 36.9651C12.5862 38.1044 14.1878 39.1135 15.1165 40.8098L16.1732 42.7413C16.3688 43.1214 16.6668 43.4405 17.0343 43.6634C17.4018 43.8863 17.8245 44.0043 18.2556 44.0043C18.6867 44.0043 19.1094 43.8863 19.4769 43.6634C19.8444 43.4405 20.1424 43.1214 20.338 42.7413L21.3288 40.9328C22.2905 39.175 23.9798 38.1623 25.5228 36.9325C31.8704 31.876 36.4922 26.5157 36.4922 18.6923Z" fill="#FFCE65"/>
</svg>
